<svg width="42" height="42" viewBox="0 0 42 42" fill="none" xmlns="http://www.w3.org/2000/svg">
<rect width="42" height="42" rx="8" fill="#4A8394"/>
<path d="M20.4675 21L23.1225 18.345C23.2622 18.2045 23.3406 18.0144 23.3406 17.8163C23.3406 17.6181 23.2622 17.428 23.1225 17.2875C23.0528 17.2172 22.9698 17.1614 22.8784 17.1234C22.787 17.0853 22.689 17.0657 22.59 17.0657C22.491 17.0657 22.393 17.0853 22.3016 17.1234C22.2102 17.1614 22.1272 17.2172 22.0575 17.2875L18.8775 20.4675C18.8072 20.5372 18.7514 20.6202 18.7133 20.7116C18.6752 20.803 18.6556 20.901 18.6556 21C18.6556 21.099 18.6752 21.1971 18.7133 21.2885C18.7514 21.3798 18.8072 21.4628 18.8775 21.5325L22.0575 24.75C22.1276 24.8195 22.2107 24.8745 22.3021 24.9119C22.3934 24.9492 22.4913 24.9681 22.59 24.9675C22.6887 24.9681 22.7865 24.9492 22.8779 24.9119C22.9693 24.8745 23.0524 24.8195 23.1225 24.75C23.2622 24.6095 23.3406 24.4194 23.3406 24.2213C23.3406 24.0231 23.2622 23.833 23.1225 23.6925L20.4675 21Z" fill="white"/>
</svg>
