<svg width="18" height="18" viewBox="0 0 18 18" fill="none" xmlns="http://www.w3.org/2000/svg">
<path d="M15.39 11.4075L14.04 10.05V6.70498C14.058 5.46285 13.6259 4.25616 12.8236 3.30773C12.0213 2.3593 10.9029 1.73318 9.67499 1.54498C8.96235 1.45113 8.23789 1.51034 7.54995 1.71866C6.862 1.92698 6.2264 2.27962 5.68554 2.75305C5.14468 3.22648 4.711 3.80981 4.41345 4.46413C4.1159 5.11844 3.96131 5.82869 3.95999 6.54748V10.05L2.60999 11.4075C2.44042 11.5799 2.32543 11.7984 2.27939 12.0358C2.23336 12.2732 2.25832 12.5189 2.35115 12.7422C2.44399 12.9655 2.60058 13.1565 2.80136 13.2912C3.00213 13.426 3.23818 13.4986 3.47999 13.5H5.99999V13.755C6.03503 14.5164 6.37046 15.2328 6.93279 15.7474C7.49512 16.2619 8.23848 16.5325 8.99999 16.5C9.7615 16.5325 10.5049 16.2619 11.0672 15.7474C11.6295 15.2328 11.965 14.5164 12 13.755V13.5H14.52C14.7618 13.4986 14.9979 13.426 15.1986 13.2912C15.3994 13.1565 15.556 12.9655 15.6488 12.7422C15.7417 12.5189 15.7666 12.2732 15.7206 12.0358C15.6746 11.7984 15.5596 11.5799 15.39 11.4075ZM10.5 13.755C10.4584 14.1157 10.2792 14.4465 9.9998 14.6785C9.72037 14.9104 9.36223 15.0256 8.99999 15C8.63776 15.0256 8.27962 14.9104 8.00019 14.6785C7.72076 14.4465 7.54159 14.1157 7.49999 13.755V13.5H10.5V13.755ZM4.13249 12L5.01749 11.115C5.15787 10.9754 5.26924 10.8095 5.34519 10.6267C5.42113 10.4439 5.46015 10.2479 5.45999 10.05V6.54748C5.4604 6.04153 5.56903 5.54152 5.77859 5.08101C5.98815 4.6205 6.29379 4.21015 6.67499 3.87748C7.05106 3.53674 7.49667 3.28179 7.981 3.13028C8.46532 2.97877 8.97679 2.93431 9.47999 2.99998C10.3474 3.14081 11.1346 3.59024 11.6969 4.26552C12.2592 4.94079 12.5586 5.79646 12.54 6.67498V10.05C12.5389 10.2474 12.5767 10.4431 12.6513 10.6258C12.726 10.8086 12.836 10.9748 12.975 11.115L13.8675 12H4.13249Z" fill="white"/>
</svg>
