<svg width="15" height="16" viewBox="0 0 15 16" fill="none" xmlns="http://www.w3.org/2000/svg">
<path d="M12.4 2H11V1.25C11 1.05109 10.9263 0.860322 10.795 0.71967C10.6637 0.579018 10.4857 0.5 10.3 0.5C10.1143 0.5 9.9363 0.579018 9.80503 0.71967C9.67375 0.860322 9.6 1.05109 9.6 1.25V2H5.4V1.25C5.4 1.05109 5.32625 0.860322 5.19497 0.71967C5.0637 0.579018 4.88565 0.5 4.7 0.5C4.51435 0.5 4.3363 0.579018 4.20503 0.71967C4.07375 0.860322 4 1.05109 4 1.25V2H2.6C2.04305 2 1.5089 2.23705 1.11508 2.65901C0.721249 3.08097 0.5 3.65326 0.5 4.25V13.25C0.5 13.8467 0.721249 14.419 1.11508 14.841C1.5089 15.2629 2.04305 15.5 2.6 15.5H12.4C12.957 15.5 13.4911 15.2629 13.8849 14.841C14.2788 14.419 14.5 13.8467 14.5 13.25V4.25C14.5 3.65326 14.2788 3.08097 13.8849 2.65901C13.4911 2.23705 12.957 2 12.4 2ZM13.1 13.25C13.1 13.4489 13.0263 13.6397 12.895 13.7803C12.7637 13.921 12.5857 14 12.4 14H2.6C2.41435 14 2.2363 13.921 2.10503 13.7803C1.97375 13.6397 1.9 13.4489 1.9 13.25V8H13.1V13.25ZM13.1 6.5H1.9V4.25C1.9 4.05109 1.97375 3.86032 2.10503 3.71967C2.2363 3.57902 2.41435 3.5 2.6 3.5H4V4.25C4 4.44891 4.07375 4.63968 4.20503 4.78033C4.3363 4.92098 4.51435 5 4.7 5C4.88565 5 5.0637 4.92098 5.19497 4.78033C5.32625 4.63968 5.4 4.44891 5.4 4.25V3.5H9.6V4.25C9.6 4.44891 9.67375 4.63968 9.80503 4.78033C9.9363 4.92098 10.1143 5 10.3 5C10.4857 5 10.6637 4.92098 10.795 4.78033C10.9263 4.63968 11 4.44891 11 4.25V3.5H12.4C12.5857 3.5 12.7637 3.57902 12.895 3.71967C13.0263 3.86032 13.1 4.05109 13.1 4.25V6.5Z" fill="#4A8394"/>
</svg>
