<svg width="30" height="30" viewBox="0 0 30 30" fill="#ffffff" xmlns="http://www.w3.org/2000/svg">
<path d="M16.84 29.6666H13.1733C12.16 29.6666 11.3333 28.84 11.3333 27.84V27.0933C11.3333 26.84 11.1733 26.6 10.9333 26.52C10.52 26.3733 10.12 26.2 9.73334 26.0267C9.49334 25.92 9.22667 25.96 9.04 26.1467L8.52 26.6667C7.82667 27.36 6.62667 27.36 5.93334 26.6667L3.34667 24.08C2.62667 23.36 2.62667 22.2 3.34667 21.4933L3.86667 20.9733C4.04 20.8 4.09334 20.5067 3.98667 20.28C3.8 19.88 3.64 19.48 3.49334 19.0933C3.41334 18.8533 3.17334 18.68 2.92 18.68H2.17334C1.16 18.68 0.333336 17.8533 0.333336 16.8533V13.1867C0.333336 12.1733 1.16 11.3467 2.17334 11.3467H2.92C3.17334 11.3467 3.41334 11.1867 3.49334 10.9333C3.64 10.5333 3.8 10.12 3.98667 9.74665C4.09334 9.50665 4.05334 9.23998 3.86667 9.05332L3.34667 8.53332C3 8.18665 2.81334 7.73332 2.81334 7.23998C2.81334 6.74665 3 6.29332 3.34667 5.94665L5.93334 3.35999C6.6 2.70665 7.86667 2.70665 8.52 3.35999L9.04 3.87999C9.22667 4.05332 9.50667 4.10665 9.73334 3.99999C10.12 3.81332 10.52 3.65332 10.92 3.50665C11.16 3.42665 11.3333 3.18665 11.3333 2.93332V2.18665C11.3333 1.17332 12.16 0.359985 13.1733 0.359985H16.84C17.8533 0.359985 18.68 1.18665 18.68 2.18665V2.93332C18.68 3.18665 18.84 3.42665 19.08 3.50665C19.4933 3.65332 19.8933 3.82665 20.28 3.99999C20.52 4.10665 20.7867 4.06665 20.9733 3.87999L21.4933 3.35999C22.1467 2.70665 23.4267 2.70665 24.08 3.35999L26.6667 5.94665C27.3867 6.66665 27.3867 7.82665 26.6667 8.53332L26.1467 9.05332C25.9733 9.23998 25.92 9.51999 26.0267 9.74665C26.2133 10.1333 26.3733 10.5333 26.52 10.9333C26.5867 11.12 26.7867 11.3467 27.0933 11.3467H27.84C28.8533 11.3467 29.68 12.1733 29.68 13.1733V16.84C29.68 17.8533 28.8533 18.6667 27.84 18.6667H27.0933C26.84 18.6667 26.6 18.8267 26.52 19.08C26.3733 19.48 26.2133 19.8933 26.0267 20.2666C25.92 20.5066 25.96 20.7733 26.1467 20.96L26.6667 21.48C27.0133 21.8266 27.2 22.28 27.2 22.7733C27.2 23.2666 27.0133 23.72 26.6667 24.0666L24.08 26.6533C23.4133 27.32 22.1467 27.3067 21.4933 26.6533L20.9733 26.1333C20.7867 25.96 20.5067 25.9067 20.28 26.0133C19.8933 26.2 19.4933 26.36 19.0933 26.5066C18.8533 26.5866 18.68 26.8266 18.68 27.08V27.8267C18.68 28.84 17.8533 29.6533 16.84 29.6533V29.6666ZM13.3333 27.6666H16.6667V27.0933C16.6667 25.9866 17.3733 25 18.4133 24.6266C18.7467 24.5066 19.08 24.3733 19.4 24.2133C20.3733 23.7467 21.56 23.9467 22.3467 24.6933L22.7733 25.12L25.1333 22.7733L24.72 22.3733C23.9467 21.6 23.7333 20.4133 24.2133 19.4133C24.3733 19.0933 24.5067 18.76 24.6267 18.4133C24.9867 17.36 25.9867 16.6667 27.0933 16.6667H27.6667V13.3333H27.0933C26.0133 13.3333 25.0267 12.6533 24.6533 11.6267C24.52 11.24 24.3867 10.9067 24.2267 10.6C23.76 9.61332 23.96 8.43998 24.7067 7.65332L25.1333 7.22665L22.7867 4.87999L22.3733 5.29332C21.6 6.06665 20.4 6.26665 19.4133 5.79998C19.0933 5.63999 18.7467 5.50665 18.4 5.37332C17.3733 5.01332 16.6667 4.01332 16.6667 2.91999V2.34665H13.3333V2.91999C13.3333 4.02665 12.6267 5.01332 11.5867 5.38665C11.2533 5.50665 10.92 5.63999 10.6 5.79998C9.62667 6.26665 8.44 6.06665 7.65334 5.31998L7.22667 4.89332L4.86667 7.23998L5.28 7.63999C6.05334 8.41332 6.26667 9.59998 5.78667 10.6C5.62667 10.92 5.49334 11.2533 5.37334 11.6C5.01334 12.6533 4.01334 13.3467 2.90667 13.3467H2.33334V16.68H2.90667C4.01334 16.68 5 17.3867 5.37334 18.4266C5.49334 18.76 5.62667 19.0933 5.78667 19.4266C6.25334 20.4266 6.05334 21.6133 5.28 22.3867L4.88 22.7866L7.22667 25.1467L7.64 24.7333C8.41334 23.96 9.6 23.7467 10.6 24.2267C10.92 24.3867 11.2667 24.52 11.6133 24.6533C12.64 25.0133 13.3467 26.0133 13.3467 27.1066V27.68L13.3333 27.6666ZM15 23.1066C10.5333 23.1066 6.89334 19.4667 6.89334 15C6.89334 10.5333 10.5333 6.89332 15 6.89332C19.4667 6.89332 23.1067 10.5333 23.1067 15C23.1067 19.4667 19.4667 23.1066 15 23.1066ZM15 8.89332C11.6267 8.89332 8.89334 11.64 8.89334 15C8.89334 18.36 11.64 21.1066 15 21.1066C18.36 21.1066 21.1067 18.36 21.1067 15C21.1067 11.64 18.36 8.89332 15 8.89332Z" fill="#4D4D4D"/>
</svg>
