<svg width="24" height="24" viewBox="0 0 24 24" fill="none" xmlns="http://www.w3.org/2000/svg">
<path fill-rule="evenodd" clip-rule="evenodd" d="M13.8648 9.87961L14.8567 0L5.31537 13.7274H10.6352L9.64337 23.6071L19.1847 9.87961H13.8648ZM12.2934 12.2274H8.18469L12.7862 5.60705L12.2067 11.3796H16.3154L11.7138 18L12.2934 12.2274Z" fill="#868E96"/>
<path d="M4.5 12.3034C4.5 8.33219 7.48755 5.05767 11.3373 4.6065L11.1627 3.1167C6.56611 3.65539 3 7.5624 3 12.3034C3 16.1399 5.33548 19.4292 8.6593 20.8304L9.24199 19.4482C6.45444 18.2731 4.5 15.5156 4.5 12.3034Z" fill="#868E96"/>
<path d="M14.5297 4.89392C17.6981 5.86748 20 8.8176 20 12.3034C20 16.4303 16.7739 19.8043 12.7066 20.0402L12.7934 21.5377C17.6495 21.256 21.5 17.2296 21.5 12.3034C21.5 8.14046 18.7506 4.62166 14.9703 3.46008L14.5297 4.89392Z" fill="#868E96"/>
</svg>
