<svg width="18" height="19" viewBox="0 0 18 19" fill="none" xmlns="http://www.w3.org/2000/svg">
<path d="M14.25 8.75H9.75V4.25C9.75 4.05109 9.67098 3.86032 9.53033 3.71967C9.38968 3.57902 9.19891 3.5 9 3.5C8.80109 3.5 8.61032 3.57902 8.46967 3.71967C8.32902 3.86032 8.25 4.05109 8.25 4.25V8.75H3.75C3.55109 8.75 3.36032 8.82902 3.21967 8.96967C3.07902 9.11032 3 9.30109 3 9.5C3 9.69891 3.07902 9.88968 3.21967 10.0303C3.36032 10.171 3.55109 10.25 3.75 10.25H8.25V14.75C8.25 14.9489 8.32902 15.1397 8.46967 15.2803C8.61032 15.421 8.80109 15.5 9 15.5C9.19891 15.5 9.38968 15.421 9.53033 15.2803C9.67098 15.1397 9.75 14.9489 9.75 14.75V10.25H14.25C14.4489 10.25 14.6397 10.171 14.7803 10.0303C14.921 9.88968 15 9.69891 15 9.5C15 9.30109 14.921 9.11032 14.7803 8.96967C14.6397 8.82902 14.4489 8.75 14.25 8.75Z" fill="white"/>
</svg>
